# xmcd
#
# Track frame offsets:
#	150
#	14720
#	31820
#	47281
#	67327
#	92393
#	109651
#
# Disc length: 1656 seconds
#
# Revision: 1
# Processed by: cddbd v1.5.2PL0 Copyright (c) Steve Scherf et al.
# Submitted via: EasyCDDAExtractor 11.1.0.1
#
DISCID=51067607
DTITLE=Outnumbered By Idiots - Songs For Pigeons
DYEAR=2008
DGENRE=blues
TTITLE0=Bees Of Sleep
TTITLE1=Anytime
TTITLE2=Spider
TTITLE3=Lay It Down
TTITLE4=Susan
TTITLE5=Hundred Years
TTITLE6=Mean
EXTD=
EXTT0=
EXTT1=
EXTT2=
EXTT3=
EXTT4=
EXTT5=
EXTT6=
PLAYORDER=
